HIERARCHY
ROOT joint_Root
{
	OFFSET 0.0 0.0 0.0
	CHANNELS 6 Xposition Yposition Zposition Zrotation Xrotation Yrotation 
	JOINT Hips
	{
		OFFSET 4.5925 91.4895 -427.239
		CHANNELS 6 Xposition Yposition Zposition Zrotation Xrotation Yrotation 
		JOINT Spine
		{
			OFFSET 15.7357 0.0 0.0
			CHANNELS 6 Xposition Yposition Zposition Zrotation Xrotation Yrotation 
			JOINT Chest
			{
				OFFSET 8.98455 -0.406207 0.0
				CHANNELS 6 Xposition Yposition Zposition Zrotation Xrotation Yrotation 
				JOINT Neck
				{
					OFFSET 16.3773 0.0 0.0
					CHANNELS 6 Xposition Yposition Zposition Zrotation Xrotation Yrotation 
					JOINT Head
					{
						OFFSET 6.45672 0.0 0.0
						CHANNELS 6 Xposition Yposition Zposition Zrotation Xrotation Yrotation 
						End Site
						{
							OFFSET 0.0 0.0 0.0
						}
					}
				}
				JOINT Shoulder_L
				{
					OFFSET 12.9942 -0.242716 4.98039
					CHANNELS 6 Xposition Yposition Zposition Zrotation Xrotation Yrotation 
					JOINT UpperArm_L
					{
						OFFSET 5.34809 0.0 0.0
						CHANNELS 6 Xposition Yposition Zposition Zrotation Xrotation Yrotation 
						JOINT LowerArm_L
						{
							OFFSET 24.3286 1.87007e-05 0.0
							CHANNELS 6 Xposition Yposition Zposition Zrotation Xrotation Yrotation 
							JOINT Hand_L
							{
								OFFSET 22.2916 0.0 0.0
								CHANNELS 6 Xposition Yposition Zposition Zrotation Xrotation Yrotation 
								End Site
								{
									OFFSET 0.0 0.0 0.0
								}
							}
						}
					}
				}
				JOINT Shoulder_R
				{
					OFFSET 12.9945 -0.242716 -4.98039
					CHANNELS 6 Xposition Yposition Zposition Zrotation Xrotation Yrotation 
					JOINT UpperArm_R
					{
						OFFSET -5.34813 0.0 0.0
						CHANNELS 6 Xposition Yposition Zposition Zrotation Xrotation Yrotation 
						JOINT LowerArm_R
						{
							OFFSET -24.3289 0.000322201 0.0
							CHANNELS 6 Xposition Yposition Zposition Zrotation Xrotation Yrotation 
							JOINT Hand_R
							{
								OFFSET -22.2915 -0.000108084 0.0
								CHANNELS 6 Xposition Yposition Zposition Zrotation Xrotation Yrotation 
								End Site
								{
									OFFSET 0.0 0.0 0.0
								}
							}
						}
					}
				}
			}
		}
		JOINT UpperLeg_L
		{
			OFFSET -2.19248 -6.46944 0.0
			CHANNELS 6 Xposition Yposition Zposition Zrotation Xrotation Yrotation 
			JOINT LowerLeg_L
			{
				OFFSET 39.0811 0.0 -1.23785e-05
				CHANNELS 6 Xposition Yposition Zposition Zrotation Xrotation Yrotation 
				JOINT Foot_L
				{
					OFFSET 40.9854 0.0 -1.26872e-05
					CHANNELS 6 Xposition Yposition Zposition Zrotation Xrotation Yrotation 
					JOINT Toes_L
					{
						OFFSET 11.7543 0.0 0.0
						CHANNELS 6 Xposition Yposition Zposition Zrotation Xrotation Yrotation 
						End Site
						{
							OFFSET 0.0 0.0 0.0
						}
					}
				}
			}
		}
		JOINT UpperLeg_R
		{
			OFFSET -2.19251 6.46944 0.0
			CHANNELS 6 Xposition Yposition Zposition Zrotation Xrotation Yrotation 
			JOINT LowerLeg_R
			{
				OFFSET -39.0811 -0.00228153 -0.0401928
				CHANNELS 6 Xposition Yposition Zposition Zrotation Xrotation Yrotation 
				JOINT Foot_R
				{
					OFFSET -40.9854 0.0 0.0
					CHANNELS 6 Xposition Yposition Zposition Zrotation Xrotation Yrotation 
					JOINT Toes_R
					{
						OFFSET -11.7543 0.0 0.0
						CHANNELS 6 Xposition Yposition Zposition Zrotation Xrotation Yrotation 
						End Site
						{
							OFFSET 0.0 0.0 0.0
						}
					}
				}
			}
		}
	}
}
MOTION
Frames:	7
Frame Time:	0.0333333
0.000000 0.000000 0.000000 0.000000 0.000000 -0.000000 116.338000 89.706200 178.440000 -85.140500 35.907200 177.856000 15.735700 0.000005 -0.000001 112.613000 83.796400 -111.955000 8.984550 -0.406207 -0.000000 3.671000 4.740840 1.162900 16.377300 -0.000001 -0.000001 1.237210 4.367030 1.425420 6.456720 -0.000001 -0.000000 0.649479 5.501800 2.165530 12.994200 -0.242716 4.980390 -89.711900 -0.779378 -69.731600 5.348090 -0.000007 -0.000001 -64.382500 50.775000 20.472500 24.328600 0.000019 0.000005 10.849300 -0.506889 -92.652600 22.291600 -0.000001 0.000005 4.638450 5.565510 -9.460440 12.994500 -0.242716 -4.980390 89.058200 4.702130 -78.663100 -5.348130 -0.000001 -0.000004 -54.617500 39.244100 -30.390600 -24.328900 0.000322 -0.000009 -8.327670 3.243500 -111.137000 -22.291500 -0.000108 -0.000004 20.181700 5.635470 -13.748500 -2.192480 -6.469440 -0.000000 -179.128000 -5.202860 -22.350000 39.081100 -0.000007 -0.000012 0.198511 -0.073200 69.757400 40.985400 -0.000006 -0.000013 10.378300 -0.204104 -58.816100 11.754300 -0.000000 0.000003 -0.010182 -0.105002 -20.855200 -2.192510 6.469440 -0.000001 166.798000 23.857600 176.996000 -39.081100 -0.002282 -0.040193 -0.016294 0.037973 27.302600 -40.985400 0.000008 0.000006 -8.305100 7.244020 -59.817000 -11.754300 -0.000006 -0.000006 -1.512040 -1.685310 -22.079200
0.000000 0.000000 0.000000 0.000000 0.000000 -0.000000 117.682000 90.712600 176.143000 -85.709500 34.111300 176.394000 15.735700 0.000005 -0.000001 121.699000 83.665300 -121.307000 8.984550 -0.406207 -0.000000 3.008490 6.634190 0.609636 16.377300 -0.000001 -0.000001 0.592423 3.477070 1.091790 6.456720 -0.000001 -0.000000 0.274829 3.464340 2.259610 12.994200 -0.242716 4.980390 -88.834000 -3.053010 -69.085800 5.348090 -0.000007 -0.000001 -63.261400 51.822500 25.430400 24.328600 0.000019 0.000005 7.870550 -0.904673 -96.525000 22.291600 -0.000001 0.000005 3.974150 5.560480 -9.211020 12.994500 -0.242716 -4.980390 89.590900 2.158500 -79.270400 -5.348130 -0.000001 -0.000004 -51.058400 37.850200 -38.483700 -24.328900 0.000322 -0.000009 -7.703490 3.702830 -115.522000 -22.291500 -0.000108 -0.000004 19.042700 5.616880 -12.392200 -2.192480 -6.469440 -0.000000 178.024000 -7.371970 -27.839500 39.081100 -0.000007 -0.000012 0.134978 -0.069848 62.637600 40.985400 -0.000006 -0.000013 7.810630 1.840470 -62.090600 11.754300 -0.000000 0.000003 -0.009377 -0.098930 -20.606800 -2.192510 6.469440 -0.000001 165.388000 28.408000 179.269000 -39.081100 -0.002282 -0.040193 0.007056 -0.008536 23.665200 -40.985400 0.000008 0.000006 -8.442980 10.424400 -54.927000 -11.754300 -0.000006 -0.000006 -0.022821 -0.182440 -24.032700
0.000000 0.000000 0.000000 0.000000 0.000000 -0.000000 119.247000 91.064100 173.893000 -85.987500 32.142800 175.785000 15.735700 0.000005 -0.000001 124.345000 83.231500 -124.099000 8.984550 -0.406207 -0.000000 3.420480 7.618770 0.263659 16.377300 -0.000001 -0.000001 -0.395754 2.837230 0.791087 6.456720 -0.000001 -0.000000 -0.670308 2.033900 1.377740 12.994200 -0.242716 4.980390 -88.084900 -4.979590 -68.932300 5.348090 -0.000007 -0.000001 -63.783500 48.900400 30.594000 24.328600 0.000019 0.000005 6.379800 -0.925371 -98.219300 22.291600 -0.000001 0.000005 3.632000 5.550970 -8.751850 12.994500 -0.242716 -4.980390 89.978500 0.118196 -79.738500 -5.348130 -0.000001 -0.000004 -47.087800 36.217400 -45.744000 -24.328900 0.000322 -0.000009 -7.290750 3.967950 -118.406000 -22.291500 -0.000108 -0.000004 18.732900 5.600270 -11.358600 -2.192480 -6.469440 -0.000000 175.938000 -8.740510 -30.821700 39.081100 -0.000007 -0.000012 0.072056 -0.054538 52.876300 40.985400 -0.000006 -0.000013 5.423760 2.877430 -64.953100 11.754300 -0.000000 0.000003 -0.008949 -0.095619 -20.471500 -2.192510 6.469440 -0.000001 163.904000 31.819300 -177.832000 -39.081100 -0.002282 -0.040193 0.021432 -0.045430 21.737900 -40.985400 0.000008 0.000006 -8.019460 12.787300 -52.427700 -11.754300 -0.000006 -0.000006 -0.035124 -0.240057 -26.421200
0.000000 0.000000 0.000000 0.000000 0.000000 -0.000000 121.064000 90.590600 171.627000 -85.567900 30.271600 175.992000 15.735700 0.000005 -0.000001 122.806000 82.479000 -122.465000 8.984550 -0.406207 -0.000000 4.892140 8.125190 0.333772 16.377300 -0.000001 -0.000001 -1.383180 2.390530 0.629333 6.456720 -0.000001 -0.000000 -2.266860 1.146920 -0.223180 12.994200 -0.242716 4.980390 -87.417100 -6.714880 -68.903900 5.348090 -0.000007 -0.000001 -64.715000 43.392500 33.634700 24.328600 0.000019 0.000005 7.390150 -1.029830 -97.891100 22.291600 -0.000001 0.000005 3.176390 5.539130 -8.200840 12.994500 -0.242716 -4.980390 90.231900 -1.321830 -80.047900 -5.348130 -0.000001 -0.000004 -43.547300 34.850500 -51.427500 -24.328900 0.000322 -0.000009 -8.187640 4.737390 -119.856000 -22.291500 -0.000108 -0.000004 19.050600 5.596980 -11.163200 -2.192480 -6.469440 -0.000000 175.033000 -9.997810 -31.779300 39.081100 -0.000007 -0.000012 0.030472 -0.033042 42.680700 40.985400 -0.000006 -0.000013 3.671160 0.961239 -66.153000 11.754300 -0.000000 0.000003 -0.008275 -0.090270 -20.253000 -2.192510 6.469440 -0.000001 162.791000 32.682900 -174.428000 -39.081100 -0.002282 -0.040193 0.015614 -0.030654 21.857100 -40.985400 0.000008 0.000006 -7.754290 12.913200 -52.973700 -11.754300 -0.000006 -0.000006 -0.044042 -0.275838 -27.916200
0.000000 0.000000 0.000000 0.000000 0.000000 -0.000000 123.155000 89.261100 169.129000 -84.596400 28.914300 176.830000 15.735700 0.000005 -0.000001 120.258000 81.398300 -119.633000 8.984550 -0.406207 -0.000000 7.107900 8.634640 0.713112 16.377300 -0.000001 -0.000001 -2.253950 2.043590 0.500224 6.456720 -0.000001 -0.000000 -4.406670 0.504569 -1.985460 12.994200 -0.242716 4.980390 -86.985900 -7.817300 -68.837300 5.348090 -0.000007 -0.000001 -65.204100 36.849000 34.257900 24.328600 0.000019 0.000005 10.106400 -1.247850 -96.967800 22.291600 -0.000001 0.000005 2.885850 5.521350 -7.418250 12.994500 -0.242716 -4.980390 90.350100 -2.012940 -80.130300 -5.348130 -0.000001 -0.000004 -40.701400 34.389900 -55.024100 -24.328900 0.000322 -0.000009 -9.590840 5.621290 -120.101000 -22.291500 -0.000108 -0.000004 19.668300 5.597760 -11.211500 -2.192480 -6.469440 -0.000000 175.521000 -10.331200 -32.228900 39.081100 -0.000007 -0.000012 0.007729 -0.010450 36.482300 40.985400 -0.000006 -0.000013 4.668650 -4.020890 -66.643400 11.754300 -0.000000 0.000003 -0.007577 -0.084557 -20.019600 -2.192510 6.469440 -0.000001 161.690000 32.070700 -170.865000 -39.081100 -0.002282 -0.040193 -0.009031 0.027475 24.193500 -40.985400 0.000008 0.000006 -8.172040 12.447600 -55.896500 -11.754300 -0.000006 -0.000006 -0.050155 -0.298312 -28.860400
0.000000 0.000000 0.000000 0.000000 0.000000 -0.000000 125.432000 87.386700 166.028000 -83.826700 28.332100 177.360000 15.735700 0.000005 -0.000001 118.861000 80.586400 -118.203000 8.984550 -0.406207 -0.000000 8.751820 9.047890 0.623830 16.377300 -0.000001 -0.000001 -3.027820 1.987500 0.405849 6.456720 -0.000001 -0.000000 -5.859840 0.034700 -2.613230 12.994200 -0.242716 4.980390 -87.120800 -7.484670 -68.888100 5.348090 -0.000007 -0.000001 -64.927900 29.588300 33.997500 24.328600 0.000019 0.000005 11.712200 -1.292000 -96.207300 22.291600 -0.000001 0.000005 2.723280 5.505710 -6.766390 12.994500 -0.242716 -4.980390 90.100000 -0.600090 -80.586100 -5.348130 -0.000001 -0.000004 -38.717300 35.808500 -55.051500 -24.328900 0.000322 -0.000009 -11.236600 6.317150 -118.983000 -22.291500 -0.000108 -0.000004 20.060500 5.602420 -11.493500 -2.192480 -6.469440 -0.000000 175.495000 -11.774000 -35.135300 39.081100 -0.000007 -0.000012 0.341950 -0.432420 38.336800 40.985400 -0.000006 -0.000013 9.615560 -7.074170 -65.897600 11.754300 -0.000000 0.000003 -0.007715 -0.085703 -20.066400 -2.192510 6.469440 -0.000001 161.117000 29.288500 -168.418000 -39.081100 -0.002282 -0.040193 -0.040513 0.084150 27.507700 -40.985400 0.000008 0.000006 -9.333180 11.252300 -59.687700 -11.754300 -0.000006 -0.000006 -0.057322 -0.322968 -29.901300
0.000000 0.000000 0.000000 0.000000 0.000000 -0.000000 127.646000 85.459600 162.068000 -83.429200 27.946200 176.835000 15.735700 0.000005 -0.000001 117.511000 80.819600 -117.254000 8.984550 -0.406207 -0.000000 8.569020 8.442160 -0.119750 16.377300 -0.000001 -0.000001 -3.345320 2.505770 0.228322 6.456720 -0.000001 -0.000000 -5.500620 -0.166332 -1.058000 12.994200 -0.242716 4.980390 -88.092200 -4.815660 -68.353900 5.348090 -0.000007 -0.000001 -63.050100 22.561400 33.166000 24.328600 0.000019 0.000005 10.848700 -1.049250 -95.456800 22.291600 -0.000001 0.000005 3.108180 5.498860 -6.486820 12.994500 -0.242716 -4.980390 89.502500 3.839040 -82.588300 -5.348130 -0.000001 -0.000004 -39.166400 39.747200 -48.431400 -24.328900 0.000322 -0.000009 -12.026800 5.986730 -116.083000 -22.291500 -0.000108 -0.000004 19.411500 5.607090 -11.777900 -2.192480 -6.469440 -0.000000 175.461000 -14.643500 -39.158800 39.081100 -0.000007 -0.000012 0.182212 -0.179605 45.412400 40.985400 -0.000006 -0.000013 9.679660 -7.754070 -60.103200 11.754300 -0.000000 0.000003 -0.003648 -0.047736 -18.518400 -2.192510 6.469440 -0.000001 160.546000 26.651800 -167.497000 -39.081100 -0.002282 -0.040193 -0.046931 0.082620 31.298300 -40.985400 0.000008 0.000006 -10.617800 10.639200 -61.288200 -11.754300 -0.000006 -0.000006 -0.084603 -0.404628 -33.392300
